<svg width="1600" height="520" viewBox="0 0 1600 520" xmlns="http://www.w3.org/2000/svg">
  <defs>
    <linearGradient id="bg" x1="0%" y1="0%" x2="100%" y2="100%">
      <stop offset="0%" stop-color="#f8fafc"/>
      <stop offset="45%" stop-color="#dbeafe"/>
      <stop offset="100%" stop-color="#e0f2fe"/>
    </linearGradient>
    <linearGradient id="cubeBlue" x1="0%" y1="0%" x2="100%" y2="100%">
      <stop offset="0%" stop-color="#60a5fa"/>
      <stop offset="100%" stop-color="#2563eb"/>
    </linearGradient>
    <linearGradient id="cubeCyan" x1="0%" y1="0%" x2="100%" y2="100%">
      <stop offset="0%" stop-color="#5eead4"/>
      <stop offset="100%" stop-color="#14b8a6"/>
    </linearGradient>
    <linearGradient id="cubeIndigo" x1="0%" y1="0%" x2="100%" y2="100%">
      <stop offset="0%" stop-color="#a5b4fc"/>
      <stop offset="100%" stop-color="#6366f1"/>
    </linearGradient>
    <filter id="shadow" x="-50%" y="-50%" width="200%" height="200%">
      <feDropShadow dx="0" dy="12" stdDeviation="14" flood-color="#0f172a" flood-opacity="0.18"/>
    </filter>
  </defs>

  <rect width="1600" height="520" fill="url(#bg)"/>

  <g opacity="0.18">
    <circle cx="260" cy="120" r="80" fill="#93c5fd"/>
    <circle cx="1320" cy="110" r="90" fill="#bae6fd"/>
    <circle cx="1180" cy="420" r="120" fill="#a5b4fc"/>
  </g>

  <g filter="url(#shadow)">
    <rect x="620" y="190" width="210" height="210" rx="24" fill="url(#cubeBlue)"/>
    <rect x="1020" y="210" width="150" height="150" rx="20" fill="url(#cubeCyan)"/>
    <rect x="890" y="120" width="120" height="120" rx="18" fill="url(#cubeIndigo)"/>
  </g>

  <g opacity="0.16">
    <circle cx="520" cy="320" r="18" fill="#2563eb"/>
    <circle cx="1180" cy="260" r="14" fill="#06b6d4"/>
    <circle cx="940" cy="360" r="10" fill="#6366f1"/>
    <circle cx="760" cy="140" r="12" fill="#0ea5e9"/>
  </g>
</svg>
