<svg width="1600" height="520" viewBox="0 0 1600 520" xmlns="http://www.w3.org/2000/svg">
  <defs>
    <linearGradient id="np-bg" x1="0%" y1="0%" x2="100%" y2="100%">
      <stop offset="0%" stop-color="#030712"/>
      <stop offset="100%" stop-color="#0b1224"/>
    </linearGradient>
    <radialGradient id="np-pink" cx="20%" cy="30%" r="40%">
      <stop offset="0%" stop-color="#f472b6" stop-opacity="0.7"/>
      <stop offset="100%" stop-color="#f472b6" stop-opacity="0"/>
    </radialGradient>
    <radialGradient id="np-cyan" cx="80%" cy="20%" r="45%">
      <stop offset="0%" stop-color="#22d3ee" stop-opacity="0.7"/>
      <stop offset="100%" stop-color="#22d3ee" stop-opacity="0"/>
    </radialGradient>
    <linearGradient id="np-line" x1="0%" y1="0%" x2="100%" y2="0%">
      <stop offset="0%" stop-color="#22d3ee" stop-opacity="0.8"/>
      <stop offset="50%" stop-color="#8b5cf6" stop-opacity="0.8"/>
      <stop offset="100%" stop-color="#f472b6" stop-opacity="0.8"/>
    </linearGradient>
  </defs>

  <rect width="1600" height="520" fill="url(#np-bg)"/>
  <rect width="1600" height="520" fill="url(#np-pink)"/>
  <rect width="1600" height="520" fill="url(#np-cyan)"/>

  <g stroke="url(#np-line)" stroke-width="3" opacity="0.55">
    <path d="M0 160 C260 200 520 120 800 170 C1080 220 1340 140 1600 190"/>
    <path d="M0 230 C260 270 520 200 800 250 C1080 300 1340 220 1600 270"/>
    <path d="M0 300 C260 340 520 260 800 310 C1080 360 1340 280 1600 330"/>
  </g>

  <g fill="#22d3ee" opacity="0.25">
    <circle cx="240" cy="420" r="12"/>
    <circle cx="520" cy="360" r="8"/>
    <circle cx="1240" cy="400" r="10"/>
  </g>
</svg>
