<svg width="1600" height="520" viewBox="0 0 1600 520" xmlns="http://www.w3.org/2000/svg">
  <defs>
    <linearGradient id="quad-bg" x1="0%" y1="0%" x2="100%" y2="100%">
      <stop offset="0%" stop-color="#0f172a"/>
      <stop offset="100%" stop-color="#111827"/>
    </linearGradient>
    <linearGradient id="quad-c1" x1="0%" y1="0%" x2="100%" y2="100%">
      <stop offset="0%" stop-color="#22d3ee"/>
      <stop offset="100%" stop-color="#2563eb"/>
    </linearGradient>
    <linearGradient id="quad-c2" x1="0%" y1="0%" x2="100%" y2="100%">
      <stop offset="0%" stop-color="#fbbf24"/>
      <stop offset="100%" stop-color="#f97316"/>
    </linearGradient>
    <linearGradient id="quad-c3" x1="0%" y1="0%" x2="100%" y2="100%">
      <stop offset="0%" stop-color="#22c55e"/>
      <stop offset="100%" stop-color="#16a34a"/>
    </linearGradient>
  </defs>

  <rect width="1600" height="520" fill="url(#quad-bg)"/>

  <g opacity="0.12">
    <rect x="120" y="80" width="90" height="90" rx="12" fill="url(#quad-c1)"/>
    <rect x="260" y="140" width="70" height="70" rx="10" fill="url(#quad-c2)"/>
    <rect x="380" y="60" width="60" height="60" rx="9" fill="url(#quad-c3)"/>
    <rect x="520" y="120" width="110" height="110" rx="14" fill="url(#quad-c1)"/>
    <rect x="700" y="80" width="80" height="80" rx="12" fill="url(#quad-c2)"/>
    <rect x="840" y="100" width="70" height="70" rx="10" fill="url(#quad-c3)"/>
    <rect x="980" y="60" width="60" height="60" rx="9" fill="url(#quad-c1)"/>
    <rect x="1120" y="130" width="100" height="100" rx="12" fill="url(#quad-c2)"/>
    <rect x="1320" y="90" width="90" height="90" rx="12" fill="url(#quad-c3)"/>
    <rect x="1460" y="70" width="70" height="70" rx="10" fill="url(#quad-c1)"/>
  </g>

  <g opacity="0.16">
    <rect x="200" y="280" width="110" height="110" rx="14" fill="url(#quad-c2)"/>
    <rect x="360" y="300" width="80" height="80" rx="12" fill="url(#quad-c3)"/>
    <rect x="500" y="280" width="100" height="100" rx="12" fill="url(#quad-c1)"/>
    <rect x="660" y="320" width="90" height="90" rx="12" fill="url(#quad-c2)"/>
    <rect x="820" y="300" width="110" height="110" rx="14" fill="url(#quad-c3)"/>
    <rect x="980" y="320" width="80" height="80" rx="12" fill="url(#quad-c1)"/>
    <rect x="1130" y="280" width="120" height="120" rx="16" fill="url(#quad-c2)"/>
    <rect x="1300" y="310" width="90" height="90" rx="12" fill="url(#quad-c3)"/>
    <rect x="1440" y="290" width="70" height="70" rx="10" fill="url(#quad-c1)"/>
  </g>
</svg>
